<svg width="36" height="50" viewBox="0 0 36 50" fill="none" xmlns="http://www.w3.org/2000/svg">
<g clip-path="url(#clip0_1:18)">
<path d="M35.5969 9.80138L32.3779 45.8623L17.9084 49.8737L3.47875 45.8679L0.2631 9.80138H35.5969Z" fill="#E44D26"/>
<path d="M17.93 46.8075L29.6221 43.5661L32.3728 12.7503H17.93V46.8075Z" fill="#F16529"/>
<path d="M11.6724 21.5972H17.93V17.1738H6.83817L6.94398 18.3605L8.03124 30.5503H17.93V26.1269H12.0767L11.6724 21.5972V21.5972Z" fill="#EBEBEB"/>
<path d="M12.6693 32.7621H8.22889L8.84856 39.7075L17.9096 42.2227L17.93 42.2172V37.615L17.9106 37.6201L12.9843 36.2899L12.6693 32.7621V32.7621Z" fill="#EBEBEB"/>
<path d="M3.55049 -1.90735e-06H5.79841V2.22091H7.85479V-1.90735e-06H10.1028V6.72548H7.85492V4.47341H5.79855V6.72548H3.55063V-1.90735e-06H3.55049Z" fill="black"/>
<path d="M13.0588 2.23033H11.0801V-1.90735e-06H17.2871V2.23033H15.3071V6.72548H13.0592V2.23033H13.0591H13.0588Z" fill="black"/>
<path d="M18.2721 -1.90735e-06H20.616L22.0578 2.36316L23.4983 -1.90735e-06H25.8431V6.72548H23.6044V3.39196L22.0578 5.78324H22.019L20.4715 3.39196V6.72548H18.2721V-1.90735e-06Z" fill="black"/>
<path d="M26.9619 -1.90735e-06H29.2105V4.50249H32.3717V6.72548H26.9617V-1.90735e-06H26.9619Z" fill="black"/>
<path d="M17.9148 30.5503H23.3617L22.8481 36.2871L17.9146 37.6187V42.2206L26.9829 39.7075L27.0494 38.9601L28.089 27.3147L28.1969 26.1269H17.9148V30.5503Z" fill="white"/>
<path d="M17.9148 21.5864V21.5972H28.5994L28.688 20.603L28.8897 18.3605L28.9954 17.1738H17.9148V21.5866V21.5864Z" fill="white"/>
</g>
<defs>
<clipPath id="clip0_1:18">
<rect width="35.46" height="50" fill="white" transform="translate(0.199997)"/>
</clipPath>
</defs>
</svg>
