<svg width="38" height="50" viewBox="0 0 38 50" fill="none" xmlns="http://www.w3.org/2000/svg">
<g clip-path="url(#clip0_1:5)">
<path d="M12.1327 38.6522C12.1327 38.6522 10.2254 39.7613 13.49 40.1366C17.4451 40.5877 19.4663 40.5231 23.8249 39.6981C23.8249 39.6981 24.9708 40.4166 26.571 41.039C16.8006 45.2264 4.45838 40.7964 12.1327 38.6522" fill="#5382A1"/>
<path d="M10.9387 33.1877C10.9387 33.1877 8.79957 34.7712 12.0666 35.1091C16.2915 35.5449 19.6279 35.5806 25.4013 34.4689C25.4013 34.4689 26.1999 35.2785 27.4555 35.7212C15.6423 39.1756 2.48468 35.9936 10.9387 33.1877" fill="#5382A1"/>
<path d="M21.0038 23.9184C23.4113 26.69 20.3712 29.1842 20.3712 29.1842C20.3712 29.1842 26.4841 26.0286 23.6767 22.0769C21.0548 18.3919 19.0439 16.5607 29.9293 10.2477C29.9293 10.2477 12.8429 14.515 21.0038 23.9182" fill="#E76F00"/>
<path d="M33.926 42.6939C33.926 42.6939 35.3374 43.8568 32.3715 44.7565C26.7319 46.465 8.8987 46.9809 3.94465 44.8246C2.16387 44.05 5.50347 42.9749 6.5539 42.7491C7.64942 42.5116 8.27558 42.5559 8.27558 42.5559C6.29509 41.1607 -4.52543 45.2954 2.77934 46.4793C22.7003 49.71 39.0932 45.0247 33.926 42.6939Z" fill="#5382A1"/>
<path d="M13.0497 27.526C13.0497 27.526 3.97876 29.6806 9.83757 30.4629C12.3113 30.7941 17.2426 30.7192 21.8361 30.3342C25.5902 30.0178 29.3597 29.3444 29.3597 29.3444C29.3597 29.3444 28.036 29.9113 27.0783 30.5652C17.8668 32.9879 0.0716753 31.8608 5.19465 29.3827C9.52717 27.2884 13.0499 27.526 13.0499 27.526" fill="#5382A1"/>
<path d="M29.3223 36.6217C38.6864 31.7558 34.3568 27.0798 31.3348 27.7098C30.5941 27.8639 30.2639 27.9974 30.2639 27.9974C30.2639 27.9974 30.5389 27.5668 31.064 27.3803C37.0423 25.2785 41.6402 33.5793 29.1341 36.8669C29.1341 36.8671 29.279 36.7376 29.3223 36.6217" fill="#5382A1"/>
<path d="M23.6767 0.0536113C23.6767 0.0536113 28.8627 5.24147 18.7581 13.2185C10.6553 19.6176 16.9104 23.2662 18.7548 27.4348C14.025 23.1675 10.5539 19.4108 12.8827 15.9146C16.3004 10.7821 25.7691 8.29378 23.6767 0.0534668" fill="#E76F00"/>
<path d="M13.9699 49.8071C22.9582 50.3825 36.7607 49.4879 37.0876 45.2348C37.0876 45.2348 36.4593 46.8473 29.6592 48.1276C21.9876 49.5712 12.5257 49.4027 6.91373 48.4775C6.91387 48.4775 8.06257 49.4283 13.9701 49.8071" fill="#5382A1"/>
</g>
<defs>
<clipPath id="clip0_1:5">
<rect width="37" height="50" fill="white" transform="translate(0.200001)"/>
</clipPath>
</defs>
</svg>
