<svg width="50" height="50" viewBox="0 0 50 50" fill="none" xmlns="http://www.w3.org/2000/svg">
<g clip-path="url(#clip0_3:12)">
<path d="M24.8208 0C12.125 0 12.9167 5.53333 12.9167 5.53333L12.9312 11.2667H25.0437V12.9875H8.125C8.125 12.9875 0 12.0604 0 24.9354C0 37.8104 7.08958 37.3521 7.08958 37.3521H11.3187V31.3792C11.3187 31.3792 11.0917 24.2542 18.2979 24.2542H30.3104C30.3104 24.2542 37.0604 24.3625 37.0604 17.6958V6.67083C37.0604 6.67083 38.0833 0 24.8187 0H24.8208ZM18.1417 3.85417C19.3458 3.85417 20.3208 4.83333 20.3208 6.04583C20.3208 7.25625 19.3458 8.23542 18.1417 8.23542C16.9354 8.23542 15.9625 7.25625 15.9625 6.04583C15.9625 4.83333 16.9354 3.85417 18.1417 3.85417Z" fill="black"/>
<path d="M25.1813 50C37.8729 50 37.0813 44.4667 37.0813 44.4667L37.0667 38.7333H24.9542V37.0125H41.8771C41.8771 37.0125 50.0021 37.9396 50.0021 25.0646C50.0021 12.1896 42.9104 12.6479 42.9104 12.6479H38.6812V18.6208C38.6812 18.6208 38.9083 25.7458 31.7021 25.7458H19.6917C19.6917 25.7458 12.9417 25.6375 12.9417 32.3042V43.3292C12.9417 43.3292 11.9167 50 25.1813 50ZM31.8604 46.1458C30.6542 46.1458 29.6813 45.1667 29.6813 43.9542C29.6813 42.7437 30.6542 41.7646 31.8604 41.7646C33.0646 41.7646 34.0396 42.7437 34.0396 43.9542C34.0396 45.1667 33.0646 46.1458 31.8604 46.1458Z" fill="black"/>
</g>
<defs>
<clipPath id="clip0_3:12">
<rect width="50" height="50" fill="white"/>
</clipPath>
</defs>
</svg>
