<svg width="50" height="50" viewBox="0 0 50 50" fill="none" xmlns="http://www.w3.org/2000/svg">
<path d="M13.0624 42.823L13.8703 43.227C17.2371 45.2469 21.0075 46.1896 24.7782 46.1896C36.6286 46.1896 46.3243 36.4938 46.3243 24.6434C46.3243 18.9876 44.0349 13.4664 39.9952 9.42645C35.9552 5.38649 30.5685 3.0973 24.7782 3.0973C12.9278 3.0973 3.23186 12.793 3.36661 24.7782C3.36661 28.818 4.57858 32.7234 6.59846 36.0898L7.13707 36.8979L4.98263 44.843L13.0624 42.823Z" fill="#00E676"/>
<path d="M42.2844 7.27181C37.7058 2.55869 31.3766 0 24.9127 0C11.1772 0 0.134749 11.177 0.269305 24.778C0.269305 29.0873 1.48127 33.262 3.50135 37.0324L0 49.8255L13.0624 46.4589C16.6983 48.479 20.738 49.4216 24.7782 49.4216C38.3792 49.4216 49.4216 38.2444 49.4216 24.6436C49.4216 18.045 46.8629 11.8504 42.2846 7.27181H42.2844ZM24.9127 45.2471C21.2768 45.2471 17.6409 44.3046 14.5436 42.4193L13.7357 42.0153L5.92529 44.0351L7.94517 36.3595L7.40656 35.5514C1.48127 25.9903 4.30927 13.3317 14.005 7.40637C23.7008 1.48127 36.2245 4.30927 42.1498 14.005C48.0749 23.7008 45.2469 36.2245 35.5514 42.1498C32.4539 44.1697 28.6834 45.2469 24.9127 45.2469V45.2471ZM36.7631 30.2996L35.2819 29.6263C35.2819 29.6263 33.1274 28.6836 31.7807 28.0102C31.6459 28.0102 31.5114 27.8755 31.3766 27.8755C30.9726 27.8755 30.7033 28.0102 30.434 28.145C30.434 28.145 30.2994 28.2795 28.4141 30.4342C28.2793 30.7035 28.01 30.8382 27.7407 30.8382H27.606C27.4714 30.8382 27.2021 30.7035 27.0674 30.5689L26.394 30.2996C24.9127 29.6263 23.5662 28.8181 22.4888 27.7409C22.2195 27.4716 21.8154 27.2023 21.5461 26.933C20.6035 25.9903 19.6608 24.9129 18.9876 23.701L18.8529 23.4317C18.7183 23.2969 18.7183 23.1624 18.5836 22.893C18.5836 22.6237 18.5836 22.3544 18.7183 22.2197C18.7183 22.2197 19.257 21.5463 19.6608 21.1425C19.9303 20.873 20.0649 20.4691 20.3342 20.1998C20.6035 19.7958 20.7382 19.2571 20.6035 18.8531C20.4689 18.1797 18.8529 14.5438 18.449 13.7359C18.1795 13.3319 17.9104 13.1973 17.5064 13.0625H16.0251C15.7556 13.0625 15.4865 13.1973 15.217 13.1973L15.0822 13.3319C14.8129 13.4666 14.5436 13.7359 14.2743 13.8705C14.005 14.14 13.8703 14.4091 13.601 14.6786C12.6583 15.8905 12.1197 17.3718 12.1197 18.8531C12.1197 19.9303 12.389 21.0077 12.793 21.9504L12.9278 22.3544C14.1398 24.9129 15.7556 27.2023 17.9104 29.2222L18.449 29.7608C18.8529 30.1649 19.257 30.4342 19.5263 30.838C22.3542 33.2622 25.5861 35.0127 29.222 35.9554C29.6261 36.09 30.1647 36.09 30.5687 36.2247H31.9153C32.5886 36.2247 33.3965 35.9554 33.9353 35.6861C34.3392 35.4168 34.6085 35.4168 34.8778 35.1475L35.1473 34.878C35.4166 34.6087 35.6859 34.4741 35.9552 34.2048C36.2245 33.9355 36.4938 33.6662 36.6286 33.3967C36.8979 32.8581 37.0324 32.1847 37.1672 31.5116V30.5689C37.1672 30.5689 37.0324 30.4342 36.7631 30.2996Z" fill="white"/>
</svg>
